<?xml version="1.0" encoding="utf-8"?>
<!-- Svg Vector Icons : http://www.onlinewebfonts.com/icon -->
<!DOCTYPE svg PUBLIC "-//W3C//DTD SVG 1.1//EN" "http://www.w3.org/Graphics/SVG/1.1/DTD/svg11.dtd">
<svg version="1.1" xmlns="http://www.w3.org/2000/svg" xmlns:xlink="http://www.w3.org/1999/xlink" x="0px" y="0px" viewBox="0 0 1000 1000" enable-background="new 0 0 1000 1000" xml:space="preserve">
<metadata> Svg Vector Icons : http://www.onlinewebfonts.com/icon </metadata>
<g><g transform="translate(0.000000,512.000000) scale(0.100000,-0.100000)"><path d="M1251.5,4975.9c-268.2-92-488.6-279.7-618.8-525c-136-260.6-128.4,26.8-128.4-4335.7c0-3343.3,5.7-3956.4,28.7-4067.5c72.8-346.8,346.8-651.4,699.3-781.7l124.5-46h2011.7c1917.9,0,2017.5,1.9,2117.1,36.4c365.9,124.5,666.7,467.5,726.1,829.6c17.2,95.8,21.1,1205.1,17.2,4115.4l-5.7,3985.1l-47.9,124.5c-101.5,256.7-287.4,469.4-521.1,593.9c-222.2,118.8-128.3,115-2295.3,115l-1983-1.9L1251.5,4975.9z M5497.2,4556.3c122.6-65.1,245.2-201.2,285.5-318c15.3-49.8,34.5-170.5,42.1-266.3l11.5-178.2H3372.5H906.7v82.4c1.9,151.4,38.3,339.1,86.2,433c57.5,115,176.3,220.3,304.6,270.1c95.8,36.4,151.4,36.4,2099.9,32.6l2002.2-3.8L5497.2,4556.3z M5811.4,527.1v-2864.3H3368.6H925.8V527.1v2864.3h2442.8h2442.8V527.1z M5821-3314.3c0-398.5-7.7-588.2-24.9-645.7c-59.4-199.2-239.5-362.1-448.3-406.2c-130.3-28.8-3828-28.8-3958.3,0c-205,42.1-387,205-446.4,396.6c-23,74.7-49.8,1149.6-28.7,1201.3c9.6,24.9,287.4,28.8,2458.1,24.9l2448.6-5.7V-3314.3z"/><path d="M3213.4-3049.9c-88.1-28.7-237.6-147.5-297-235.7c-153.3-224.2-113-496.2,99.6-687.8c111.1-103.4,216.5-145.6,352.5-145.6c139.9,0,243.3,44.1,362.1,153.3c233.7,214.6,247.2,521.1,32.6,753c-103.5,113-231.8,174.4-375.5,180.1C3324.6-3030.8,3246-3038.4,3213.4-3049.9z M3470.2-3459.9c51.7-36.4,59.4-168.6,9.6-222.3c-40.2-44.1-170.5-46-220.3-1.9c-47.9,44.1-46,166.7,3.8,216.5C3309.2-3421.6,3410.8-3417.8,3470.2-3459.9z"/><path d="M8269.6,2994.8c-72.8-13.4-139.9-113-139.9-205c0-74.7,11.5-95.8,134.1-229.9c415.8-456,676.3-959.9,808.5-1569.2c36.4-170.5,42.1-252.9,42.1-636.1c0-383.2-5.7-465.6-42.1-636.1c-132.2-609.3-385.1-1101.7-806.6-1569.1c-126.4-141.8-136-157.1-136-239.5c0-70.9,9.6-95.8,53.7-136c107.3-99.6,210.7-86.2,333.4,47.9c498.2,534.6,800.9,1145.7,938.8,1891c34.5,182,40.2,293.1,40.2,641.8c0,348.7-5.7,459.8-40.2,641.8c-137.9,745.3-444.5,1366.1-925.4,1873.8c-63.2,65.2-126.5,118.8-141.8,118.8c-13.4,0-36.4,3.8-51.7,7.7C8323.2,3000.6,8292.6,2998.7,8269.6,2994.8z"/><path d="M7219.6,2186.3c-63.2-26.8-107.3-90.1-118.8-172.4c-9.6-74.7-5.7-82.4,122.6-216.5c406.2-423.4,582.4-772.1,638-1258.7c65.2-555.6-139.9-1097.8-595.8-1582.6c-170.5-182-174.4-187.8-164.8-262.5c19.1-141.8,153.3-222.2,283.5-168.6c76.6,32.6,321.9,298.9,450.3,490.5c254.8,383.2,383.2,775.9,402.3,1243.4c28.7,643.8-197.3,1253-641.8,1737.8C7420.8,2186.3,7330.8,2230.4,7219.6,2186.3z"/></g></g>
</svg>